HIERARCHY
ROOT Hips
{
  OFFSET -331.093 83.8371 -317.828
  CHANNELS 6 Xposition Yposition Zposition Zrotation Xrotation Yrotation
  JOINT LeftUpLeg
  {
    OFFSET 8.64259 1.95398 -2.38835
    CHANNELS 3 Zrotation Xrotation Yrotation
    JOINT LeftLeg
    {
      OFFSET 43.7702 0 0
      CHANNELS 3 Zrotation Xrotation Yrotation
      JOINT LeftFoot
      {
        OFFSET 40.6238 0 0
        CHANNELS 3 Zrotation Xrotation Yrotation
        JOINT LeftToeBase
        {
          OFFSET 12.7242 0 0
          CHANNELS 3 Zrotation Xrotation Yrotation
          End Site
          {
            OFFSET 0 0 0
          }
        }
      }
    }
  }
  JOINT RightUpLeg
  {
    OFFSET -8.2249 1.95398 -2.59336
    CHANNELS 3 Zrotation Xrotation Yrotation
    JOINT RightLeg
    {
      OFFSET 43.5653 0 0
      CHANNELS 3 Zrotation Xrotation Yrotation
      JOINT RightFoot
      {
        OFFSET 40.6238 0 0
        CHANNELS 3 Zrotation Xrotation Yrotation
        JOINT RightToeBase
        {
          OFFSET 12.7242 0 0
          CHANNELS 3 Zrotation Xrotation Yrotation
          End Site
          {
            OFFSET 0 0 0
          }
        }
      }
    }
  }
  JOINT Spine
  {
    OFFSET 0.165834 0.87714 6.61349
    CHANNELS 3 Zrotation Xrotation Yrotation
    JOINT Spine1
    {
      OFFSET 7.38963 1.71661e-005 0
      CHANNELS 3 Zrotation Xrotation Yrotation
      JOINT Spine2
      {
        OFFSET 11.9445 1.14441e-005 0
        CHANNELS 3 Zrotation Xrotation Yrotation
        JOINT Spine3
        {
          OFFSET 14.7254 4.19617e-005 0
          CHANNELS 3 Zrotation Xrotation Yrotation
          JOINT Spine4
          {
            OFFSET 10.9679 0 0
            CHANNELS 3 Zrotation Xrotation Yrotation
            JOINT RightShoulder
            {
              OFFSET 2.46616 -1.6653 3.69651
              CHANNELS 3 Zrotation Xrotation Yrotation
              JOINT RightArm
              {
                OFFSET 13.0012 0 0
                CHANNELS 3 Zrotation Xrotation Yrotation
                JOINT RightForeArm
                {
                  OFFSET 28.7848 1.62311e-005 0
                  CHANNELS 3 Zrotation Xrotation Yrotation
                  JOINT RightHand
                  {
                    OFFSET 26.5688 1.62095e-005 0
                    CHANNELS 3 Zrotation Xrotation Yrotation
                    End Site
                    {
                      OFFSET 0 0 0
                    }
                  }
                }
              }
            }
            JOINT LeftShoulder
            {
              OFFSET 2.38034 -1.29275 -3.7523
              CHANNELS 3 Zrotation Xrotation Yrotation
              JOINT LeftArm
              {
                OFFSET 16.3182 6.07031e-005 0
                CHANNELS 3 Zrotation Xrotation Yrotation
                JOINT LeftForeArm
                {
                  OFFSET 27.0901 0 0
                  CHANNELS 3 Zrotation Xrotation Yrotation
                  JOINT LeftHand
                  {
                    OFFSET 24.5451 1.51738e-005 0
                    CHANNELS 3 Zrotation Xrotation Yrotation
                    End Site
                    {
                      OFFSET 0 0 0
                    }
                  }
                }
              }
            }
            JOINT Neck
            {
              OFFSET 5.0226 -0.0266342 0
              CHANNELS 3 Zrotation Xrotation Yrotation
              JOINT Head
              {
                OFFSET 6.69364 2.86102e-005 0
                CHANNELS 3 Zrotation Xrotation Yrotation
                End Site
                {
                  OFFSET 0 0 0
                }
              }
            }
          }
        }
      }
    }
  }
}
MOTION
Frames:	17
Frame Time:	0.0416667
-329.965 81.7405 -325.401 46.7322 -2.21521 72.4954 153.43 84.4466 93.3107 -20.3642 -46.6367 15.0007 36.338 -20.9991 -101.331 -3.09495 -25.734 15.1073 15.6174 81.4918 -136.659 -74.2665 -18.7842 9.72898 83.886 -13.985 -5.99257 -111.092 -21.3595 12.9589 8.64944 2.25046 -84.2339 22.0955 19.9817 6.97824 10.5712 20.2681 6.05971 -12.7949 16.9647 12.7812 7.21773 16.9647 12.7812 130.256 -24.7673 -23.6949 52.9555 -50.0548 31.5902 17.5422 -45.5045 -19.5402 -56.238 -3.05327 0.975969 -30.4227 56.1036 -13.2714 -10.1842 20.2497 -138.269 -23.4253 79.4664 -0.196751 54.1746 4.65669 3.82026 -44.6391 -41.2442 -66.1241 109.681 23.1626 45.6447 
-330.533 81.7912 -325.908 46.6003 -2.30101 72.2046 153.364 84.3566 93.4931 -18.2185 -50.0492 15.7911 35.1563 -19.5908 -104.363 -3.72847 -25.9984 13.9251 15.7019 81.6158 -136.524 -75.0975 -18.77 9.64946 84.6329 -14.3919 -5.97037 -110.161 -22.336 13.6975 8.65156 2.23236 -84.2269 22.1285 19.991 6.98976 10.6044 20.2779 6.07076 -12.7605 16.9638 12.7945 7.25221 16.9638 12.7945 130.123 -24.7465 -23.9193 53.8404 -51.3379 32.4504 17.8587 -46.8038 -20.0408 -54.4922 -4.03585 3.25122 -31.6594 55.6907 -12.7537 -10.469 21.2986 -137.502 -23.6594 79.2362 -0.192591 54.3474 4.41658 3.32409 -44.9516 -41.9708 -65.9376 111.07 23.8608 45.2985 
-332.124 81.986 -327.32 46.3058 -2.56384 71.389 153.411 84.2945 93.7362 -12.7492 -57.9201 18.0942 34.0972 -16.0008 -110.674 -4.21709 -25.5454 10.3496 17.0067 82.1556 -137.181 -77.2304 -18.684 9.39719 86.6591 -15.503 -5.90164 -107.516 -24.6912 15.6856 8.65073 2.18864 -84.2136 22.2156 19.9969 6.99899 10.6915 20.2842 6.07972 -12.6721 16.9617 12.8047 7.34053 16.9617 12.8047 129.746 -24.7407 -24.6016 56.1027 -54.9954 34.6878 18.8793 -50.0658 -21.6696 -48.6231 -6.26578 9.7347 -35.6368 54.3196 -11.0573 -11.5596 24.5672 -134.869 -24.2719 78.7163 -0.183824 54.842 3.66776 1.80303 -46.2255 -44.4963 -65.4975 116.052 25.7538 43.6763 
-334.541 82.3744 -329.446 46.0311 -3.0176 70.1372 154.066 84.6057 93.4478 -5.40981 -66.4687 21.9915 36.5496 -12.1577 -116.947 -1.11274 -21.9958 4.89249 22.5473 83.4301 -141.676 -80.0258 -18.4227 8.95295 89.5962 -17.1271 -5.77443 -103.45 -27.3682 18.4905 8.6344 2.1331 -84.223 22.3339 19.9587 6.95961 10.8093 20.2444 6.0422 -12.5531 16.9378 12.7556 7.45955 16.9377 12.7556 129.152 -24.8487 -25.7763 60.6189 -60.2094 39.3046 19.5241 -53.6919 -25.203 -38.1369 -7.86084 19.4329 -42.656 51.6694 -8.04784 -14.2265 30.1178 -129.473 -24.9848 78.0874 -0.174249 55.5649 2.27925 -0.919235 -50.5024 -50.4246 -65.8181 127.956 27.2841 38.3532 
-337.559 82.9176 -332.08 45.9735 -3.69495 68.5359 156.563 85.4232 91.3275 3.20767 -73.4958 27.954 43.2221 -9.828 -122.279 9.01979 -14.1286 -0.323946 42.1223 85.4817 -159.889 -82.9449 -17.8677 8.3225 93.0954 -19.0686 -5.56974 -98.3181 -29.5177 21.6521 8.58681 2.07885 -84.2924 22.4596 19.8271 6.81934 10.9334 20.1068 5.90837 -12.4246 16.8539 12.5817 7.58801 16.8538 12.5817 128.346 -25.1732 -27.5201 68.6767 -66.2448 47.7048 19.735 -55.63 -30.6961 -25.6236 -7.33551 30.3098 -52.691 47.2184 -3.82072 -20.2368 37.471 -119.439 -25.2497 77.5612 -0.166986 56.1992 0.102123 -5.02251 -68.9921 -61.6307 -76.4679 148.296 19.6853 27.8464 
-340.95 83.5006 -335.023 46.3184 -4.65651 66.6721 164.754 86.6806 83.4918 13.0409 -78.3057 36.5097 53.1047 -9.66826 -126.444 24.6082 -3.48575 -2.79501 104.292 86.0524 139.478 -85.5956 -16.9113 7.53569 96.8005 -21.116 -5.28095 -92.4541 -30.6818 24.7526 8.48668 2.03918 -84.4561 22.5703 19.5416 6.52635 11.0407 19.8088 5.62932 -12.3069 16.6686 12.215 7.70578 16.6686 12.215 127.287 -25.8088 -29.9692 83.6875 -72.014 63.407 20.2449 -54.9348 -37.173 -15.0623 -5.35076 40.7516 -65.2489 40.2301 1.22811 -33.0799 44.3943 -101.082 -24.1226 77.6775 -0.165052 56.0876 -2.782 -10.3908 -0.886306 -26.7898 -5.15887 -94.3242 48.5368 -64.6572 
-344.59 83.7261 -338.128 42.7677 -3.44832 63.8533 28.8685 86.0709 -137.203 23.1381 -81.4024 46.4232 64.6858 -10.8954 -128.983 38.6319 6.89203 -1.53004 -166.29 86.8094 47.9352 -88.0584 -15.3141 7.08626 100.319 -22.9796 -4.90691 -86.1901 -30.5835 27.3071 8.29925 1.47017 -84.8129 23.3558 19.1139 6.80993 11.8143 19.3944 5.93405 -11.4366 16.1816 12.3418 8.57604 16.1816 12.3418 125.872 -26.8426 -33.3547 110.737 -75.6327 91.5908 21.8512 -52.0996 -43.5096 -8.16423 -3.39297 50.4579 -79.4695 29.7733 6.50224 -54.6377 44.4941 -71.9845 -19.9835 79.7155 -0.165795 54.4627 -5.74596 -16.2569 -0.778556 -32.9533 -3.16524 -119.002 37.5297 -41.3608 
-346.973 87.5108 -340.752 115.31 -23.984 91.5495 179.98 18.673 60.676 22.43 -77.0758 55.3214 78.6792 -19.8243 -129.551 46.9661 16.1436 4.40706 159.75 -3.22062 86.7214 -84.0186 -15.5447 -0.194639 101.902 -24.6504 -5.15055 -78.3056 -30.0806 30.4888 8.46855 8.20962 -90.1397 13.0884 16.6527 -4.52999 1.52503 16.4351 -5.27648 -21.9716 17.2221 0.837763 -1.95898 17.2221 0.837768 123.892 -28.3577 -38.0631 144.081 -74.6667 126.589 24.579 -48.162 -49.2699 -4.53546 -2.33737 59.4315 -94.4131 14.846 11.2974 -72.4344 29.2738 -43.1914 -10.2372 85.9158 -0.219239 51.1747 -7.68611 -21.0355 0.779537 -34.2764 0.922285 -124.051 25.1602 -33.1507 
-350.252 87.7609 -343.566 130.954 -23.8685 98.6245 -178.404 13.6948 70.2085 21.6499 -76.6804 59.5537 91.2415 -23.0381 -127.231 49.8268 22.5692 11.2525 158.172 -16.2837 68.4391 -83.175 -13.5324 -2.23805 102.284 -25.1595 -5.16535 -71.2724 -27.214 30.9991 8.06412 8.42909 -92.4963 10.4674 14.9237 -6.27334 -1.13454 14.6336 -6.93453 -24.3646 16.1027 -1.38997 -4.3519 16.1027 -1.38998 121.003 -30.4212 -44.6771 166.822 -69.4933 151.544 28.0007 -44.0221 -54.4774 -3.18252 -2.40863 67.4217 -109.472 -4.96233 14.6577 -72.252 -1.19434 -25.2806 -173.903 80.9726 179.942 46.7657 -7.98378 -23.3787 3.07358 -33.4139 5.167 -125.364 14.321 -27.2001 
-353.616 86.932 -346.293 127.168 -26.8361 96.7747 -176.568 21.5818 69.6239 20.8264 -77.4943 61.2971 101.588 -23.028 -124.694 49.6615 26.6365 17.9657 158.08 -18.6658 68.9195 -82.5879 -10.951 -2.60319 100.176 -24.2403 -5.39324 -64.1412 -22.7225 29.3909 6.27026 8.945 -92.0767 9.24741 11.5759 -4.95152 -2.38258 11.3469 -5.46099 -25.3319 12.5214 -1.19338 -5.31923 12.5214 -1.19337 114.088 -31.7256 -58.3913 -170.733 -60.4704 178.733 31.068 -38.7768 -61.0341 -3.32423 -3.61546 73.8346 -129.683 -35.4707 15.1273 -47.5325 -37.7556 -17.0949 -156.763 57.584 179.936 41.2783 -7.18813 -23.8807 14.5462 -25.4295 16.9238 -127.305 4.24621 -18.207 
-356.601 86.0064 -348.705 122.328 -29.5904 94.08 -174.782 29.5858 69.0102 19.4355 -78.3653 61.5345 108.98 -21.888 -122.912 48.3797 28.9048 23.4512 158.261 -19.8263 69.5025 -81.3729 -8.62681 -2.84914 94.9742 -21.6893 -5.83613 -56.1193 -17.183 25.9878 4.80792 8.91236 -91.4057 9.1886 8.96038 -3.42363 -2.45716 8.80114 -3.817 -25.237 9.57137 -0.549755 -5.22439 9.57138 -0.549753 107.839 -33.7924 -71.0165 -163.679 -53.641 -170.827 34.8827 -37.183 -65.1831 -3.98245 -4.9682 78.9898 -147.889 -51.7466 5.55391 -22.8142 -46.9642 -13.2572 -156.958 56.1836 179.939 37.1929 -7.20012 -25.8896 20.1672 -18.7719 18.3377 -124.239 -4.30393 -11.561 
-359.01 85.0647 -350.656 116.492 -32.0021 90.43 -172.979 37.3634 68.2049 19.6538 -79.4646 62.3892 112.826 -20.4512 -122.257 47.399 29.9395 26.594 158.869 -19.4793 70.1019 -79.7169 -6.83173 -3.01764 86.9802 -17.5276 -6.0079 -46.8112 -11.4706 21.2558 3.12843 8.9038 -90.6333 9.11634 5.95674 -1.67499 -2.54232 5.87727 -1.93635 -25.1879 6.18374 0.199512 -5.17528 6.18372 0.199506 100.841 -34.5082 -84.3501 -154.938 -48.9511 -158.469 39.1196 -38.1798 -66.9668 -4.74059 -6.20662 82.4716 -164.653 -58.7747 -6.88703 -2.07432 -33.5524 -11.766 -169.26 81.0002 179.9 34.8684 -7.96095 -29.5918 27.7337 -11.2631 17.0591 -119.159 -11.3694 -3.7687 
-360.643 84.2143 -351.976 110.105 -33.9407 86.1636 -171.187 44.3571 67.2896 24.1931 -80.8453 66.7183 112.829 -19.4226 -122.627 47.5614 30.1516 26.6055 159.847 -18.1032 70.5967 -77.3531 -5.65227 -3.15547 77.2643 -12.3862 -5.35746 -36.5846 -6.70685 16.1645 1.9035 8.56811 -89.9934 9.74615 3.79755 -0.286868 -1.91931 3.78126 -0.454003 -24.4976 3.70793 0.869321 -4.48496 3.70796 0.869327 95.6551 -34.6323 -94.1692 -147.463 -47.434 -149.898 43.6064 -41.3195 -64.7778 -5.22643 -6.92829 84.2285 -169.623 -59.2199 -11.3791 8.70161 -9.80964 -5.8064 -5.87174 64.5842 -0.0206379 31.3384 -8.70564 -34.5414 31.3197 -6.94442 13.2537 -110.248 -15.0272 2.5329 
-361.361 83.5076 -352.532 104.013 -35.4024 82.2887 -169.829 49.9642 66.8836 36.2377 -82.1881 78.0514 108.602 -19.0918 -123.846 49.1866 29.4738 22.8935 161.097 -16.703 71.2074 -74.113 -4.91162 -3.26909 67.2775 -7.31232 -3.78079 -26.616 -3.50243 11.7091 1.01501 8.08495 -89.5878 10.6989 2.21124 0.617377 -0.970269 2.23627 0.519403 -23.5165 1.92346 1.25361 -3.5038 1.92345 1.2536 91.8828 -34.2597 -101.336 -139.97 -48.157 -143.471 47.6562 -45.5254 -59.3114 -5.23802 -6.87038 83.952 -167.662 -58.9041 -9.70744 8.22246 5.71134 2.83593 -13.8591 36.646 -0.0257324 26.9453 -8.38856 -37.367 31.4014 -4.09443 10.0126 -97.9456 -15.1365 7.07567 
-361.093 82.8677 -352.291 98.8765 -36.7023 79.3697 -169.462 53.7954 67.5361 58.9461 -82.8057 99.6161 99.3492 -19.0146 -125.921 51.8822 27.0426 14.9815 162.564 -15.5314 71.922 -70.8351 -4.36606 -3.48192 58.5245 -3.1343 -1.67411 -18.0447 -1.70929 8.44746 0.430442 7.70005 -89.3528 11.4666 1.15891 1.17158 -0.204292 1.20936 1.11943 -22.7373 0.753253 1.46567 -2.72468 0.753272 1.46568 89.6976 -33.908 -105.522 -129.449 -50.8918 -135.516 51.1086 -51.331 -50.5353 -4.54944 -5.58344 81.0052 -159.988 -59.1774 -2.09464 1.97449 8.84876 10.3136 -13.2877 21.6599 -0.0214665 23.6416 -7.56982 -37.4656 29.5208 -2.16697 8.01043 -82.6429 -12.4215 8.98373 
-359.419 82.6158 -350.85 95.4592 -37.9985 77.7019 -170.836 54.7081 69.6276 84.0701 -81.893 122.852 84.3348 -18.3972 -128.369 53.3966 21.0295 3.13558 163.764 -15.1879 72.36 -67.3412 -3.8892 -3.8679 51.3132 -0.0605184 0.473735 -11.3813 -0.821224 6.39879 0.0703152 7.491 -89.2035 11.8858 0.514778 1.53325 0.214073 0.581752 1.50912 -22.3138 0.0302266 1.61706 -2.30118 0.0302376 1.61706 88.6073 -34.0578 -107.486 -113.532 -55.3603 -123.501 55.0236 -60.277 -37.0293 -2.94935 -2.76268 73.7501 -149.479 -60.1635 9.23353 -4.29713 5.98597 14.9632 -10.02 16.924 -0.0157704 21.4909 -6.6971 -35.8768 24.4297 -1.10531 7.72471 -63.4585 -8.03057 7.32596 
-356.064 82.8108 -347.962 92.9531 -39.6791 76.9673 -173.955 52.8181 73.2372 98.3504 -80.423 133.927 64.1154 -16.3908 -129.302 47.6828 9.6607 -10.6581 165.232 -14.6572 72.9941 -64.34 -3.30668 -4.46522 45.86 2.07482 2.35489 -6.62978 -0.416561 5.31022 -0.0890084 7.36349 -89.1008 12.1416 0.248402 1.76699 0.469475 0.325919 1.75435 -22.0562 -0.294033 1.75999 -2.04353 -0.29404 1.75998 88.0619 -35.1417 -108.073 -86.8342 -60.2033 -101.871 69.5012 -73.6372 -8.11742 -0.199049 1.04088 57.9224 -137.181 -61.2718 23.2294 -9.45591 2.05941 17.7745 -6.88618 17.4908 -0.0108728 19.9307 -5.78461 -33.0078 14.6613 -0.998114 9.24452 -39.916 -4.02019 1.54795 
